<svg width="61" height="24" viewBox="0 0 61 24" fill="#E89F71" xmlns="http://www.w3.org/2000/svg">
<path d="M11.9996 21.0541C-8 10 5.99999 -2 11.9996 5.58806C18 -2 32 10 11.9996 21.0541Z" stroke="white" stroke-width="1.8"/>
<path d="M34.96 15.24V5.8H33.12V17H39.52V15.24H34.96ZM41.6376 7.8C42.2456 7.8 42.7416 7.288 42.7416 6.696C42.7416 6.088 42.2456 5.592 41.6376 5.592C41.0296 5.592 40.5336 6.088 40.5336 6.696C40.5336 7.288 41.0296 7.8 41.6376 7.8ZM40.7736 17H42.5016V9H40.7736V17ZM51.58 17L47.932 12.92L51.452 9H49.34L46.236 12.536V5.8H44.508V17H46.236V13.304L49.516 17H51.58ZM53.4618 13.736H59.8298C59.8618 13.512 59.8938 13.256 59.8938 13.016C59.8938 10.712 58.2618 8.792 55.8778 8.792C53.3658 8.792 51.6538 10.632 51.6538 13C51.6538 15.4 53.3658 17.208 56.0058 17.208C57.5738 17.208 58.7738 16.552 59.5098 15.464L58.0858 14.632C57.7018 15.192 56.9818 15.624 56.0218 15.624C54.7418 15.624 53.7338 14.984 53.4618 13.736ZM53.4457 12.328C53.6858 11.128 54.5658 10.36 55.8618 10.36C56.9018 10.36 57.9098 10.952 58.1498 12.328H53.4457Z" fill="white"/>
</svg>
