<svg width="46" height="45" viewBox="0 0 46 45" fill="none" xmlns="http://www.w3.org/2000/svg">
<rect width="46" height="45" fill="#E89F71"/>
<path d="M31.7825 13.2174C31.6813 13.1167 31.5534 13.047 31.4139 13.0164C31.2744 12.9858 31.1291 12.9957 30.995 13.0449L14.495 19.0449C14.3527 19.0989 14.2302 19.1949 14.1437 19.3202C14.0573 19.4454 14.011 19.594 14.011 19.7462C14.011 19.8984 14.0573 20.047 14.1437 20.1722C14.2302 20.2975 14.3527 20.3935 14.495 20.4474L20.9375 23.0199L25.6925 18.2499L26.75 19.3074L21.9725 24.0849L24.5525 30.5275C24.6081 30.667 24.7043 30.7866 24.8286 30.8709C24.953 30.9551 25.0998 31.0001 25.25 30.9999C25.4016 30.9968 25.5486 30.9479 25.6718 30.8595C25.795 30.7711 25.8885 30.6475 25.94 30.5049L31.94 14.0049C31.9911 13.8723 32.0034 13.7278 31.9755 13.5883C31.9477 13.4489 31.8807 13.3203 31.7825 13.2174Z" fill="white"/>
</svg>
