<svg width="75" height="24" viewBox="0 0 75 24" fill="none" xmlns="http://www.w3.org/2000/svg">
<path d="M36.848 17.208C39.184 17.208 40.816 15.96 40.816 13.912C40.816 11.688 38.944 11.112 37.088 10.52C35.456 10.008 34.832 9.64 34.832 8.776C34.832 7.928 35.52 7.384 36.592 7.384C37.84 7.384 38.544 8.056 38.944 8.952L40.496 8.056C39.792 6.568 38.432 5.592 36.592 5.592C34.704 5.592 32.992 6.76 32.992 8.824C32.992 10.936 34.688 11.576 36.432 12.104C38.096 12.616 38.976 12.952 38.976 13.944C38.976 14.76 38.352 15.416 36.896 15.416C35.376 15.416 34.512 14.664 34.112 13.528L32.528 14.456C33.12 16.12 34.64 17.208 36.848 17.208ZM46.5129 8.792C45.4249 8.792 44.5609 9.192 44.0329 10.024V5.8H42.3049V17H44.0329V12.712C44.0329 11.08 44.9289 10.408 46.0649 10.408C47.1529 10.408 47.8569 11.048 47.8569 12.264V17H49.5849V12.088C49.5849 10.008 48.3049 8.792 46.5129 8.792ZM57.7815 9V10.136C57.1735 9.304 56.2295 8.792 54.9815 8.792C52.8055 8.792 50.9975 10.616 50.9975 13C50.9975 15.368 52.8055 17.208 54.9815 17.208C56.2295 17.208 57.1735 16.696 57.7815 15.848V17H59.5095V9H57.7815ZM55.2535 15.56C53.8135 15.56 52.7255 14.488 52.7255 13C52.7255 11.512 53.8135 10.44 55.2535 10.44C56.6935 10.44 57.7815 11.512 57.7815 13C57.7815 14.488 56.6935 15.56 55.2535 15.56ZM63.2516 10.344V9H61.5236V17H63.2516V12.968C63.2516 11.176 64.5796 10.648 65.7156 10.728V8.856C64.7076 8.856 63.7316 9.256 63.2516 10.344ZM67.9774 13.736H74.3454C74.3774 13.512 74.4094 13.256 74.4094 13.016C74.4094 10.712 72.7774 8.792 70.3934 8.792C67.8814 8.792 66.1694 10.632 66.1694 13C66.1694 15.4 67.8814 17.208 70.5214 17.208C72.0894 17.208 73.2894 16.552 74.0254 15.464L72.6014 14.632C72.2174 15.192 71.4974 15.624 70.5374 15.624C69.2574 15.624 68.2494 14.984 67.9774 13.736ZM67.9614 12.328C68.2014 11.128 69.0814 10.36 70.3774 10.36C71.4174 10.36 72.4254 10.952 72.6654 12.328H67.9614Z" fill="white"/>
<path d="M18 16C17.212 16 16.5 16.31 15.966 16.807L8.91 12.7C8.96 12.47 9 12.24 9 12C9 11.76 8.96 11.53 8.91 11.3L15.96 7.19C16.5 7.69 17.21 8 18 8C19.66 8 21 6.66 21 5C21 3.34 19.66 2 18 2C16.34 2 15 3.34 15 5C15 5.24 15.04 5.47 15.09 5.7L8.04 9.81C7.5 9.31 6.79 9 6 9C4.34 9 3 10.34 3 12C3 13.66 4.34 15 6 15C6.79 15 7.5 14.69 8.04 14.19L15.088 18.308C15.0317 18.5344 15.0022 18.7667 15 19C15 19.5933 15.1759 20.1734 15.5056 20.6667C15.8352 21.1601 16.3038 21.5446 16.8519 21.7716C17.4001 21.9987 18.0033 22.0581 18.5853 21.9424C19.1672 21.8266 19.7018 21.5409 20.1213 21.1213C20.5409 20.7018 20.8266 20.1672 20.9424 19.5853C21.0581 19.0033 20.9987 18.4001 20.7716 17.8519C20.5446 17.3038 20.1601 16.8352 19.6667 16.5056C19.1734 16.1759 18.5933 16 18 16Z" fill="white"/>
</svg>
